<svg width="382" height="111" viewBox="0 0 382 111" fill="none" xmlns="http://www.w3.org/2000/svg">
<path opacity="0.38" d="M244.229 4.53193C240.729 4.36815 237.247 4.24197 233.741 4.1494C232.323 3.9996 230.906 3.83201 229.51 3.68421C205.059 1.08785 180.432 -0.0705869 155.913 0.630523C135.507 1.21118 115.003 3.07554 95.6868 8.26436C90.2576 9.71674 85.1642 11.5235 80.1817 13.7716C77.1254 15.1393 74.218 16.7723 71.476 18.4924C70.8803 18.8321 70.3044 19.1915 69.7286 19.5509C68.6563 19.8822 67.5625 20.2114 66.5101 20.5625C60.8508 22.3885 55.4298 24.6855 50.1263 27.1192C44.6193 29.6416 39.3191 32.5065 34.3184 35.6506C28.5581 39.2628 22.8707 43.0253 17.688 47.1939C14.7574 49.5429 12.0568 51.9852 9.55313 54.6432C7.67496 56.6412 6.17242 58.7998 4.74765 61.0554C2.45411 64.7205 0.613974 68.8766 0.633773 73.098C0.642018 75.1097 1.10201 76.9301 2.0121 78.8102C2.9983 80.8052 4.47762 82.6305 6.03141 84.355C9.04301 87.6695 12.8026 90.6405 16.9229 92.9986C21.1871 95.442 25.9693 97.2153 30.7515 98.7551C41.3717 102.148 52.3856 104.573 63.5204 106.165C75.2973 107.852 87.2412 108.909 99.1157 109.546C105.204 109.878 111.306 110.051 117.414 110.17C120.338 110.226 123.263 110.265 126.191 110.285C129.096 110.304 132.057 110.436 134.972 110.348C152.245 109.871 169.53 109.485 186.798 109.061C190.082 108.972 193.359 108.737 196.63 108.557C202.627 108.235 208.63 107.841 214.616 107.41C226.522 106.542 238.371 105.345 250.18 103.893C273.993 100.972 297.428 96.5252 319.845 89.488C326.237 87.4788 332.322 85.0459 338.342 82.3736C341.918 80.7849 345.254 78.9763 348.638 77.1183C355.154 73.5405 360.911 69.0303 366.291 64.3773C371.058 60.2419 375.903 54.5696 374.007 48.3603C373.441 46.5122 371.973 44.7956 370.57 43.3185C370.393 43.1225 370.194 42.9245 369.996 42.7265C372.169 41.9948 374.202 40.6577 375.986 39.441C377.351 38.5265 378.616 37.5308 379.799 36.4737C379.966 36.3097 382.416 34.2213 381.647 33.629C377.482 30.351 372.657 27.6401 367.666 25.3087C362.613 22.9536 357.107 21.2567 351.671 19.7458C346.13 18.2072 340.499 16.9295 334.839 15.7211C328.99 14.459 323.109 13.3018 317.172 12.283C305.234 10.2216 293.183 8.68815 281.111 7.36837C277.933 7.01898 274.815 6.71118 271.674 6.41919C262.553 5.57122 253.391 4.93486 244.229 4.53193ZM105.855 22.5864C117.778 21.5402 129.832 21.1706 141.874 21.1769C166.414 21.1781 190.956 23.0288 215.32 26.084C226.816 27.5298 238.265 29.2406 249.661 31.2876C258.941 32.9943 268.151 34.9817 277.323 37.1452C286.772 39.3703 296.153 41.8584 305.254 45.0208C313.388 47.8419 321.606 50.9401 328.971 55.0363C332.458 56.9764 335.696 59.2526 338.61 61.75C341.104 63.8671 343.657 66.5105 344.358 69.4665C337.802 71.8376 331.021 73.8286 324.212 75.6554C301.646 81.4937 278.216 84.9534 254.671 87.5585C242.525 88.9071 230.305 89.8897 218.076 90.7279C213.818 91.0144 209.564 91.2653 205.295 91.4429C194.036 91.8865 182.8 92.3142 171.541 92.7578C167.229 92.9314 162.897 93.0853 158.584 93.259C151.528 93.5367 144.398 93.4483 137.327 93.4194C126.179 93.3705 115.043 92.9636 103.921 92.163C93.2962 91.3907 82.6628 90.4739 72.1816 88.6197C66.572 87.5775 60.9873 86.2682 55.4786 84.8403C50.0329 83.4363 44.6351 81.7494 39.6229 79.4161C34.8606 77.1957 30.5169 74.2063 26.8368 70.8477C23.5356 67.8475 20.6812 64.2424 20.299 60.1849C20.3785 56.296 21.9257 52.4897 24.0207 49.0934C24.6429 48.2355 25.328 47.4014 26.0312 46.605C26.4118 46.2453 26.7941 45.8679 27.1962 45.5103C27.7357 45.0756 28.2966 44.643 28.8576 44.2103C30.3204 43.1792 31.8047 42.1502 33.3288 41.1607C34.6178 40.3648 35.9267 39.5887 37.2754 38.8522C39.9677 37.4327 42.7179 36.0904 45.5459 34.845C48.8438 33.4459 52.1947 32.1773 55.6217 31.0236C55.5969 31.0572 55.572 31.0908 55.5472 31.1244C54.8754 32.0495 54.2234 32.761 54.043 33.7676C53.7716 35.52 54.642 37.1271 55.7407 38.6118C56.7617 39.9995 58.3353 41.0436 59.8014 42.0777C62.3266 43.8566 64.8285 45.6513 67.7177 47.0152C68.9803 47.4378 70.1866 47.2986 71.3548 46.6351C72.3957 46.1753 73.4365 45.7154 74.4972 45.2754C77.2061 43.9112 79.7776 42.3907 82.1902 40.7117C84.6442 39.0546 86.9377 37.2568 89.0707 35.3184C89.8137 34.5615 90.5567 33.8047 91.2782 33.0458C92.2876 32.2239 92.6798 31.2728 92.4134 30.1708C90.6528 28.3372 88.6357 26.6953 86.736 24.9566C86.7162 24.9368 86.6963 24.917 86.6765 24.8972C93.0224 23.8532 99.4462 23.1397 105.855 22.5864Z" fill="#3354F4"/>
</svg>
