<svg width="37" height="27" viewBox="0 0 37 27" fill="none" xmlns="http://www.w3.org/2000/svg">
<path d="M14.9032 0.71245C15.3782 1.18745 15.6062 1.76141 15.5872 2.43433C15.5666 3.10724 15.3188 3.6812 14.8438 4.1562L8.13448 10.8656L34.6157 10.8656C35.2886 10.8656 35.8531 11.0936 36.3091 11.5496C36.7635 12.004 36.9907 12.5677 36.9907 13.2406C36.9907 13.9135 36.7635 14.478 36.3091 14.934C35.8531 15.3884 35.2886 15.6156 34.6157 15.6156L8.13447 15.6156L14.9032 22.3843C15.3782 22.8593 15.6157 23.4238 15.6157 24.0777C15.6157 24.73 15.3782 25.2937 14.9032 25.7687C14.4282 26.2437 13.8638 26.4812 13.2098 26.4812C12.5575 26.4812 11.9938 26.2437 11.5188 25.7687L0.653226 14.9031C0.415727 14.6656 0.247098 14.4083 0.147348 14.1312C0.0491802 13.8541 9.64973e-05 13.5572 9.6525e-05 13.2406C9.65526e-05 12.9239 0.0491803 12.627 0.147348 12.3499C0.247098 12.0729 0.415727 11.8156 0.653226 11.5781L11.5782 0.653076C12.0136 0.217659 12.5575 -5.17271e-05 13.2099 -5.16701e-05C13.8638 -5.16129e-05 14.4282 0.237451 14.9032 0.71245Z" fill="#3354F4"/>
</svg>
