<svg width="37" height="27" viewBox="0 0 37 27" fill="none" xmlns="http://www.w3.org/2000/svg">
<path d="M22.0875 26.25C21.6125 25.775 21.3845 25.201 21.4035 24.5281C21.4241 23.8552 21.6719 23.2812 22.1469 22.8062L28.8562 16.0968H2.375C1.70208 16.0968 1.13763 15.8688 0.681625 15.4128C0.227209 14.9584 0 14.3947 0 13.7218C0 13.0489 0.227209 12.4845 0.681625 12.0285C1.13763 11.574 1.70208 11.3468 2.375 11.3468H28.8562L22.0875 4.57807C21.6125 4.10307 21.375 3.53862 21.375 2.8847C21.375 2.23237 21.6125 1.6687 22.0875 1.1937C22.5625 0.7187 23.127 0.481201 23.7809 0.481201C24.4332 0.481201 24.9969 0.7187 25.4719 1.1937L36.3375 12.0593C36.575 12.2968 36.7436 12.5541 36.8434 12.8312C36.9415 13.1083 36.9906 13.4052 36.9906 13.7218C36.9906 14.0385 36.9415 14.3354 36.8434 14.6125C36.7436 14.8895 36.575 15.1468 36.3375 15.3843L25.4125 26.3093C24.9771 26.7447 24.4332 26.9625 23.7809 26.9625C23.127 26.9625 22.5625 26.7249 22.0875 26.25Z" fill="#3354F4"/>
</svg>
