<svg width="197" height="96" viewBox="0 0 197 96" fill="none" xmlns="http://www.w3.org/2000/svg">
<path d="M194.906 49.5927C196.063 27.7219 154.377 7.75531 101.798 4.99606C49.2187 2.23681 5.65771 17.7298 4.5014 39.6006C3.34509 61.4714 45.0313 81.438 97.6102 84.1973C150.189 86.9565 193.75 71.4636 194.906 49.5927Z" stroke="#3354F4" stroke-width="1.0566" stroke-miterlimit="10"/>
<path d="M193.706 53.1904C194.862 31.3196 153.176 11.353 100.597 8.59372C48.0178 5.83447 4.45678 21.3275 3.30047 43.1983C2.14416 65.0691 43.8304 85.0357 96.4093 87.7949C148.988 90.5542 192.549 75.0612 193.706 53.1904Z" stroke="#3354F4" stroke-width="1.0566" stroke-miterlimit="10"/>
<path d="M192.499 56.3878C193.655 34.517 151.969 14.5504 99.3899 11.7912C46.811 9.03192 3.24999 24.5249 2.09368 46.3957C0.937374 68.2665 42.6236 88.2332 95.2025 90.9924C147.781 93.7516 191.342 78.2587 192.499 56.3878Z" stroke="#3354F4" stroke-width="1.0566" stroke-miterlimit="10"/>
</svg>
