<svg width="46" height="71" viewBox="0 0 46 71" fill="none" xmlns="http://www.w3.org/2000/svg">
<g clip-path="url(#clip0_27_34)">
<path d="M25.1985 71C29.3619 71 33.3488 70.3179 37.1592 68.9537C40.9748 67.5895 43.9182 65.8401 45.9999 63.6949C44.8734 61.4715 42.1117 60.6541 39.9677 61.9245C38.701 62.6743 37.2838 63.3616 35.716 63.976C32.3832 65.2881 28.8739 65.9442 25.1933 65.9442C21.6736 65.9442 18.808 65.5016 16.5913 64.6217C14.3798 63.7365 12.7497 62.5494 11.7115 61.0498C10.6732 59.5502 10.1489 57.8945 10.1489 56.0721C10.1489 53.88 10.7771 52.1149 12.0282 50.7768C13.2844 49.4386 14.9249 48.3816 16.9495 47.6058C18.9793 46.83 21.2167 46.1479 23.6722 45.5595C26.1277 44.9712 28.5832 44.3412 31.0335 43.6747C33.4889 43.0082 35.742 42.1126 37.7925 40.988C39.8483 39.8633 41.4991 38.3794 42.7554 36.5362C44.0117 34.6929 44.6346 32.2718 44.6346 29.2727C44.6346 26.4922 43.9027 23.9357 42.4335 21.6082C40.9696 19.2808 38.7114 17.4064 35.6745 15.9901C32.6324 14.5738 28.7389 13.8657 23.9941 13.8657C20.8482 13.8657 17.7282 14.3083 14.6342 15.1883C11.5402 16.0734 8.87185 17.2866 6.63441 18.8382L6.67075 18.9267C7.67266 21.301 10.4189 22.332 12.7705 21.2958C13.9074 20.796 15.0806 20.3742 16.2746 20.041C18.9689 19.2912 21.5697 18.9163 24.0771 18.9163C27.4359 18.9163 30.2132 19.3693 32.3988 20.2805C34.5843 21.1917 36.1988 22.4049 37.2422 23.9305C38.2805 25.4561 38.8048 27.1795 38.8048 29.106C38.8048 31.2981 38.1767 33.0684 36.9256 34.4014C35.6745 35.7395 34.0184 36.7809 31.9627 37.5307C29.9121 38.2804 27.6539 38.9469 25.2036 39.5353C22.7482 40.1236 20.3083 40.7693 17.8839 41.4618C15.4596 42.1595 13.217 43.0551 11.1612 44.1485C9.11065 45.2471 7.45463 46.705 6.19834 48.5222C4.94724 50.3446 4.31909 52.7241 4.31909 55.666C4.31909 58.3943 5.06664 60.9248 6.56173 63.2523C8.05682 65.5797 10.3358 67.4542 13.4038 68.8704C16.4615 70.2919 20.3965 71 25.1985 71Z" fill="#3354F4"/>
<path d="M5.92326 56.1762C2.65275 56.1762 0 53.5208 0 50.2405V0H38.4051C38.4051 2.83771 36.1106 5.13391 33.2865 5.13391H5.92326V56.1762ZM5.27954 27.2056H29.7668C32.5961 27.2056 34.8854 29.507 34.8854 32.3395H5.27954V27.2056Z" fill="#3354F4"/>
</g>
<defs>
<clipPath id="clip0_27_34">
<rect width="46" height="71" fill="white"/>
</clipPath>
</defs>
</svg>
