<svg width="108" height="81" viewBox="0 0 108 81" fill="none" xmlns="http://www.w3.org/2000/svg">
<path d="M53.3305 9.30896C48.7 11.6722 44.3896 14.0621 40.4046 16.4734C36.4143 18.89 32.9895 21.2746 30.1354 23.6378C26.7853 26.4972 24.0273 29.5486 21.8614 32.7974C19.6955 36.0462 17.8231 40.2339 16.244 45.3552H22.5976C28.8018 45.3552 33.2562 46.8809 35.9715 49.9376C38.6815 52.9944 40.0365 56.3926 40.0365 60.1321C40.0365 64.8586 38.2121 69.3664 34.5685 73.6501C30.9249 77.9339 25.9477 80.0784 19.6475 80.0784C12.9472 80.0784 7.99664 78.2113 4.80118 74.4663C1.60039 70.7268 0 65.7975 0 59.6894C0 51.7087 1.72309 44.4696 5.16927 37.972C8.61012 31.4691 12.9472 25.6597 18.1698 20.5384C23.2911 15.6145 28.6364 11.5228 34.2004 8.27404C39.7645 5.02524 44.6617 2.26723 48.9027 0L53.3305 9.30896ZM108 9.30896C103.369 11.6722 99.0591 14.0621 95.0688 16.4734C91.0784 18.89 87.6536 21.2746 84.7996 23.6378C81.4494 26.4972 78.6914 29.5486 76.5255 32.7974C74.3597 36.0462 72.4872 40.2339 70.9081 45.3552H77.2617C83.4659 45.3552 87.9203 46.8809 90.6357 49.9376C93.3457 52.9944 94.7007 56.3926 94.7007 60.1321C94.7007 64.8586 92.8762 69.3664 89.2327 73.6501C85.5891 77.9339 80.6119 80.0784 74.3116 80.0784C67.6113 80.0784 62.6608 78.2113 59.46 74.4663C56.2592 70.7268 54.6588 65.7975 54.6588 59.6894C54.6588 51.7087 56.3819 44.4696 59.8281 37.972C63.2743 31.4691 67.606 25.6597 72.8286 20.5384C77.9499 15.6145 83.2952 11.5228 88.8592 8.27404C94.4286 5.02524 99.3311 2.26723 103.567 0L108 9.30896Z" fill="#3354F4"/>
</svg>
