<svg width="108" height="81" viewBox="0 0 108 81" fill="none" xmlns="http://www.w3.org/2000/svg">
<path d="M54.6695 70.7696C59.3 68.4064 63.6104 66.0165 67.5954 63.6052C71.5857 61.1886 75.0105 58.804 77.8646 56.4408C81.2147 53.5814 83.9727 50.53 86.1386 47.2812C88.3045 44.0324 90.1769 39.8447 91.756 34.7234L85.4024 34.7234C79.1982 34.7234 74.7438 33.1977 72.0285 30.141C69.3185 27.0842 67.9635 23.6861 67.9635 19.9465C67.9635 15.22 69.7879 10.7122 73.4315 6.42847C77.0751 2.14475 82.0523 0.000218984 88.3525 0.000219535C95.0528 0.000220121 100.003 1.86735 103.199 5.61227C106.4 9.35186 108 14.2811 108 20.3892C108 28.3699 106.277 35.609 102.831 42.1066C99.3899 48.6095 95.0528 54.419 89.8302 59.5402C84.7089 64.4641 79.3636 68.5558 73.7996 71.8046C68.2355 75.0534 63.3383 77.8114 59.0973 80.0786L54.6695 70.7696ZM6.1849e-05 70.7696C4.63053 68.4064 8.94093 66.0165 12.9312 63.6052C16.9216 61.1886 20.3464 58.804 23.2004 56.4408C26.5506 53.5814 29.3086 50.53 31.4745 47.2812C33.6403 44.0324 35.5128 39.8447 37.0919 34.7234L30.7383 34.7234C24.5341 34.7234 20.0797 33.1977 17.3643 30.141C14.6543 27.0842 13.2993 23.686 13.2993 19.9465C13.2993 15.22 15.1238 10.7122 18.7674 6.42847C22.4109 2.14475 27.3882 0.000214205 33.6884 0.000214756C40.3887 0.000215342 45.3392 1.86734 48.54 5.61227C51.7408 9.35186 53.3412 14.2811 53.3412 20.3892C53.3412 28.3699 51.6181 35.609 48.1719 42.1066C44.7257 48.6095 40.394 54.419 35.1714 59.5402C30.0501 64.4641 24.7048 68.5558 19.1408 71.8046C13.5714 75.0534 8.66887 77.8114 4.43316 80.0786L6.1849e-05 70.7696Z" fill="#3354F4"/>
</svg>
